#!OML:ASF H:\Male1\Project 1\Capture day 1\Session 1\Male1.ASF
:FULLY-SPECIFIED
:DEGREES
378
root 16.6695 15.4758 -1.37017 171.6 -86.2905 -173.674
lowerback 7.72922 1.77093 -1.24055
upperback 3.0157 2.20595 1.40593
thorax -1.31802 1.05333 1.95197
lowerneck -9.60025 2.77849 4.57374
upperneck 7.77941 4.17916 -11.7817
head 4.25538 1.51519 -4.1156
rclavicle -1.53064e-014 1.19271e-014
rhumerus -39.577 9.51236 -80.2759
rradius 30.032
rwrist -20.7619
rhand -14.7932 2.87035
rfingers 7.12502
rthumb 11.3642 -26.8017
lclavicle -1.53064e-014 1.19271e-014
lhumerus 57.478 9.81618 8.54232
lradius 65.7386
lwrist -9.58577
lhand -50.9639 1.48367
lfingers 7.12502
lthumb -23.514 30.0665
rfemur -2.60973 15.3769 17.866
rtibia 23.5189
rfoot -32.7852 -33.7962
rtoes -5.1311
lfemur -3.83389 -15.2438 -23.9416
ltibia 22.5574
lfoot -17.7725 17.3642
ltoes -8.60098
379
root 16.6658 15.4762 -1.41678 173.785 -86.4148 -175.771
lowerback 7.63857 1.8124 -1.43195
upperback 3.02014 2.2484 1.34503
thorax -1.26994 1.07406 1.99549
lowerneck -9.64073 2.87534 4.56199
upperneck 7.81188 4.32732 -11.9361
head 4.28865 1.57531 -4.15156
rclavicle -2.37051e-014 -3.97569e-016
rhumerus -39.1567 9.7385 -80.4669
rradius 30.0203
rwrist -20.942
rhand -14.7845 2.95962
rfingers 7.12502
rthumb 11.3726 -26.712
lclavicle -2.37051e-014 -3.97569e-016
lhumerus 59.6874 11.2914 10.1246
lradius 63.9574
lwrist -9.15595
lhand -50.6149 1.75597
lfingers 7.12502
lthumb -23.1791 30.3813
rfemur -2.51618 15.635 17.9903
rtibia 23.3385
rfoot -33.5221 -34.2203
rtoes -5.42927
lfemur -3.91356 -15.4091 -23.8895
ltibia 22.5609
lfoot -17.7189 17.4028
ltoes -9.03438
380
root 16.663 15.474 -1.46288 178.341 -86.3208 -180.301
lowerback 7.60766 1.8457 -1.69657
upperback 3.04171 2.27314 1.27505
thorax -1.23889 1.08501 2.07096
lowerneck -9.56987 2.97782 4.36794
upperneck 7.70136 4.48718 -12.0129
head 4.25541 1.64716 -4.13174
rclavicle -2.34566e-014 -8.34896e-015
rhumerus -38.5749 10.0115 -80.6037
rradius 29.9236
rwrist -21.1068
rhand -14.761 3.1932
rfingers 7.12502
rthumb 11.3952 -26.4772
lclavicle -2.34566e-014 -8.34896e-015
lhumerus 61.3935 12.7696 11.6855
lradius 61.7272
lwrist -9.02595
lhand -50.4444 2.60737
lfingers 7.12502
lthumb -23.0156 31.2532
rfemur -2.44253 15.6569 17.8695
rtibia 23.178
rfoot -33.8282 -34.2102
rtoes -5.76366
lfemur -3.90526 -15.5494 -24.0323
ltibia 22.6161
lfoot -17.6784 17.6507
ltoes -9.43769
381
root 16.6606 15.4744 -1.50852 177.349 -85.9911 -179.23
lowerback 7.61315 1.85504 -1.51167
upperback 2.98969 2.29993 1.27997
thorax -1.29007 1.10067 1.96875
lowerneck -9.53966 3.1026 4.46439
upperneck 7.81822 4.68618 -12.3918
head 4.31559 1.72069 -4.25375
rclavicle -1.39646e-014 -7.95139e-016
rhumerus -38.1626 10.3144 -80.8078
rradius 30.0779
rwrist -21.3487
rhand -14.755 3.33411
rfingers 7.12502
rthumb 11.401 -26.3359
lclavicle -1.39646e-014 -7.95139e-016
lhumerus 62.5395 14.2453 13.0193
lradius 59.3387
lwrist -8.70835
lhand -50.4047 3.89928
lfingers 7.12502
lthumb -22.9775 32.5498
rfemur -2.54057 15.6117 18.0466
rtibia 23.1359
rfoot -33.8765 -33.909
rtoes -6.74839
lfemur -3.8783 -15.6713 -23.7812
ltibia 22.6199
lfoot -17.8066 17.9603
ltoes -9.22967
382
root 16.6655 15.4798 -1.55925 176.042 -85.686 -177.748
lowerback 7.65329 1.81268 -1.28451
upperback 2.88174 2.26242 1.2777
thorax -1.41323 1.08584 1.83911
lowerneck -9.33565 3.11708 4.46089
upperneck 7.77795 4.71388 -12.5179
head 4.2748 1.7337 -4.29247
rclavicle -3.11595e-014 -4.37326e-015
rhumerus -37.9127 10.6103 -81.0971
rradius 30.5459
rwrist -21.6178
rhand -14.7669 3.34209
rfingers 7.12502
rthumb 11.3896 -26.3286
lclavicle -3.11595e-014 -4.37326e-015
lhumerus 63.2744 15.7407 14.2899
lradius 56.4577
lwrist -8.66371
lhand -50.3492 5.29204
lfingers 7.12502
lthumb -22.9242 33.9492
rfemur -2.78882 15.591 18.2445
rtibia 23.1327
rfoot -33.8237 -33.6391
rtoes -8.47496
lfemur -3.9998 -15.7274 -23.4037
ltibia 22.618
lfoot -17.9487 18.1354
ltoes -8.9493
383
root 16.6673 15.4801 -1.61417 179.49 -85.0916 -181.171
lowerback 7.66696 1.85595 -1.51228
upperback 2.89919 2.30161 1.22131
thorax -1.4109 1.10434 1.90516
lowerneck -9.41748 3.46034 4.67563
upperneck 7.55953 5.14748 -12.6914
head 4.27189 1.94767 -4.34933
rclavicle 2.36057e-014 1.03368e-014
rhumerus -37.639 11.0296 -81.3666
rradius 31.2488
rwrist -21.8752
rhand -14.7639 3.01843
rfingers 7.12502
rthumb 11.3924 -26.6521
lclavicle 2.36057e-014 1.03368e-014
lhumerus 63.6749 17.2113 15.5678
lradius 53.3978
lwrist -8.40304
lhand -50.4617 7.05914
lfingers 7.12502
lthumb -23.0321 35.7029
rfemur -2.92258 15.6706 18.0578
rtibia 23.0965
rfoot -33.2275 -33.3376
rtoes -10.3538
lfemur -3.95011 -15.6663 -23.4856
ltibia 22.6457
lfoot -18.1042 18.5713
ltoes -8.77924
384
root 16.6653 15.4775 -1.67089 181.79 -84.1811 -183.51
lowerback 7.65895 1.96025 -1.77694
upperback 2.96261 2.41875 1.22248
thorax -1.357 1.15964 2.0457
lowerneck -9.59365 3.53141 4.6364
upperneck 7.68728 5.26441 -12.7694
head 4.35265 1.98751 -4.35753
rclavicle -1.82385e-014 -7.15625e-015
rhumerus -37.4376 11.6004 -81.6052
rradius 32.1778
rwrist -22.217
rhand -14.736 2.5367
rfingers 7.12502
rthumb 11.4193 -27.1323
lclavicle -1.82385e-014 -7.15625e-015
lhumerus 63.5608 18.6496 16.7471
lradius 50.396
lwrist -7.95361
lhand -50.69 9.24332
lfingers 7.12502
lthumb -23.2512 37.8596
rfemur -3.04431 15.7577 17.885
rtibia 23.0974
rfoot -32.5391 -32.9036
rtoes -12.0979
lfemur -3.74939 -15.621 -23.6037
ltibia 22.6185
lfoot -18.2802 19.3544
ltoes -8.62137
385
root 16.6634 15.4806 -1.7284 181.135 -83.3058 -182.805
lowerback 7.63897 2.02151 -1.69269
upperback 2.94815 2.50713 1.27977
thorax -1.36426 1.20389 2.04984
lowerneck -9.70825 3.64088 4.7784
upperneck 7.64349 5.40145 -12.9161
head 4.37978 2.04747 -4.41582
rclavicle -1.37658e-014 5.1684e-015
rhumerus -37.3706 12.2039 -81.8813
rradius 33.1014
rwrist -22.7356
rhand -14.7832 2.25766
rfingers 7.12502
rthumb 11.3738 -27.4139
lclavicle -1.37658e-014 5.1684e-015
lhumerus 62.9984 19.968 17.7978
lradius 47.6551
lwrist -7.13427
lhand -50.9018 11.2737
lfingers 7.12502
lthumb -23.4544 39.8642
rfemur -3.23815 15.8076 18.0247
rtibia 23.0868
rfoot -31.9495 -32.584
rtoes -13.8632
lfemur -3.61699 -15.6034 -23.3928
ltibia 22.56
lfoot -18.4674 20.1114
ltoes -8.58906
386
root 16.6715 15.4899 -1.79294 180.784 -82.72 -182.333
lowerback 7.74205 1.99112 -1.63089
upperback 2.80381 2.47412 1.31362
thorax -1.56749 1.19202 2.04684
lowerneck -9.51835 3.6914 5.04649
upperneck 7.55322 5.44224 -13.0575
head 4.33533 2.07759 -4.50385
rclavicle 1.8487e-014 1.23246e-014
rhumerus -37.4497 12.6703 -82.2122
rradius 33.9258
rwrist -23.1899
rhand -14.838 1.99542
rfingers 7.12502
rthumb 11.321 -27.679
lclavicle 1.8487e-014 1.23246e-014
lhumerus 62.0889 21.0524 18.569
lradius 45.1647
lwrist -6.19882
lhand -51.025 13.4046
lfingers 7.12502
lthumb -23.5726 41.9799
rfemur -3.43143 15.8427 18.2477
rtibia 22.9762
rfoot -31.2757 -32.4448
rtoes -14.8782
lfemur -3.66194 -15.5534 -23.0451
ltibia 22.5614
lfoot -18.9548 20.2358
ltoes -6.82305
387
root 16.6649 15.4974 -1.85551 180.299 -81.8418 -181.934
lowerback 7.83629 2.03049 -1.5047
upperback 2.77195 2.53443 1.32765
thorax -1.65071 1.22303 1.98111
lowerneck -9.41893 3.73879 5.11952
upperneck 7.58818 5.48599 -12.8479
head 4.32792 2.11714 -4.44763
rclavicle 1.28216e-014 -1.98785e-015
rhumerus -37.5042 13.1105 -82.5732
rradius 34.6724
rwrist -23.5253
rhand -15.0297 2.08737
rfingers 7.12502
rthumb 11.1361 -27.5971
lclavicle 1.28216e-014 -1.98785e-015
lhumerus 60.7543 22.0378 19.0462
lradius 43.0613
lwrist -5.26062
lhand -51.0295 16.1173
lfingers 7.12502
lthumb -23.5769 44.692
rfemur -3.40535 16.0826 18.5293
rtibia 22.8742
rfoot -30.5592 -32.1754
rtoes -15.5898
lfemur -3.35564 -15.6325 -22.8356
ltibia 22.5369
lfoot -19.9584 20.5291
ltoes -3.40441
388
root 16.6584 15.5001 -1.92242 180.343 -81.034 -182.112
lowerback 7.90504 2.01056 -1.45205
upperback 2.8411 2.50709 1.33121
thorax -1.61406 1.20695 1.95702
lowerneck -9.63998 3.84057 5.15821
upperneck 7.64552 5.60138 -12.6052
head 4.38642 2.18095 -4.36613
rclavicle 2.87244e-014 1.39149e-014
rhumerus -37.3688 13.6901 -82.9521
rradius 35.3211
rwrist -23.8744
rhand -15.5251 2.65601
rfingers 7.12502
rthumb 10.6583 -27.0537
lclavicle 2.87244e-014 1.39149e-014
lhumerus 58.9863 23.0831 19.4036
lradius 41.4831
lwrist -4.404
lhand -50.0554 18.8405
lfingers 7.12502
lthumb -22.6422 47.5324
rfemur -3.32318 16.5201 18.8092
rtibia 22.8544
rfoot -30.3396 -31.9715
rtoes -15.8838
lfemur -2.99972 -15.5847 -22.7231
ltibia 22.4571
lfoot -20.4587 21.1061
ltoes -2.54972
